<svg width="159" height="47" viewBox="0 0 159 47" fill="none" xmlns="http://www.w3.org/2000/svg">
<path d="M12.2405 44.628L4.42181 39.6498C3.10405 38.6249 2.45981 37.1608 2.45981 35.228V8.58006C2.63551 10.7178 3.98255 12.5919 6.53022 14.2025C7.43801 14.7589 8.72648 15.5202 10.3956 16.4573C11.6255 17.1601 12.2405 18.3607 12.2405 20.0299V44.628ZM17.8336 19.7664L39.1227 0H30.2791C26.4723 0 23.1632 1.28847 20.3813 3.86542L10.1028 13.2654V0H7.61371C5.5053 0 3.719 0.732086 2.22554 2.22554C0.732086 3.719 0 5.5053 0 7.61371V33.7639C0 34.1738 0.0292833 34.5838 0.08785 34.9938V35.228C0.08785 37.9514 1.05421 40.0305 2.95763 41.524C3.0162 41.5826 3.07477 41.6411 3.16262 41.6704L10.9813 46.6486C11.362 46.8829 11.8012 47 12.2405 47C12.6505 47 13.0312 46.9122 13.3826 46.7072C14.2318 46.2679 14.6417 45.5651 14.6417 44.628V30.5427L22.7826 38.1271C25.5645 40.704 28.8735 41.9925 32.6804 41.9925H41.9632L17.8336 19.7664Z" fill="#5A341D"/>
<path d="M58.6753 24.804H52.2673C51.9953 25.46 51.7633 26.044 51.5713 26.556C51.3793 27.052 51.2193 27.484 51.0913 27.852C50.9793 28.22 50.8993 28.532 50.8513 28.788C50.8033 29.044 50.7793 29.252 50.7793 29.412C50.7793 29.86 50.9233 30.172 51.2113 30.348C51.4993 30.508 51.9793 30.588 52.6513 30.588V31.5H46.8193V30.588C47.1873 30.54 47.4993 30.476 47.7553 30.396C48.0273 30.316 48.2593 30.204 48.4513 30.06C48.6593 29.916 48.8353 29.732 48.9793 29.508C49.1393 29.268 49.2913 28.98 49.4353 28.644L55.6753 13.02H56.7073L62.1553 26.556C62.5233 27.452 62.8433 28.172 63.1153 28.716C63.3873 29.244 63.6513 29.644 63.9073 29.916C64.1633 30.188 64.4353 30.364 64.7233 30.444C65.0273 30.524 65.3873 30.564 65.8033 30.564V31.5H57.9793V30.564C58.8273 30.564 59.4113 30.484 59.7313 30.324C60.0513 30.164 60.2113 29.9 60.2113 29.532C60.2113 29.372 60.2033 29.228 60.1873 29.1C60.1713 28.956 60.1393 28.804 60.0913 28.644C60.0593 28.484 60.0033 28.308 59.9233 28.116C59.8593 27.908 59.7713 27.668 59.6593 27.396L58.6753 24.804ZM52.7473 23.604H58.2193L55.5553 16.524L52.7473 23.604ZM94.0863 31.5H78.5823V30.588C79.1423 30.572 79.5903 30.524 79.9263 30.444C80.2783 30.364 80.5503 30.228 80.7423 30.036C80.9343 29.844 81.0623 29.572 81.1263 29.22C81.1903 28.868 81.2223 28.412 81.2223 27.852V16.668C81.2223 16.108 81.1903 15.66 81.1263 15.324C81.0783 14.972 80.9663 14.7 80.7903 14.508C80.6303 14.3 80.3903 14.164 80.0703 14.1C79.7503 14.02 79.3343 13.964 78.8223 13.932V13.02H86.1183V13.932C85.6063 13.948 85.1903 13.996 84.8703 14.076C84.5663 14.156 84.3263 14.3 84.1503 14.508C83.9903 14.716 83.8783 15.004 83.8143 15.372C83.7663 15.74 83.7423 16.228 83.7423 16.836V27.18C83.7423 27.852 83.8063 28.404 83.9343 28.836C84.0783 29.252 84.3103 29.58 84.6303 29.82C84.9663 30.044 85.4063 30.204 85.9503 30.3C86.4943 30.38 87.1823 30.42 88.0143 30.42C88.9263 30.42 89.6943 30.372 90.3183 30.276C90.9423 30.164 91.4623 29.98 91.8783 29.724C92.3103 29.452 92.6463 29.084 92.8863 28.62C93.1423 28.14 93.3583 27.524 93.5343 26.772H94.4463L94.0863 31.5ZM118.652 24.804H112.244C111.972 25.46 111.74 26.044 111.548 26.556C111.356 27.052 111.196 27.484 111.068 27.852C110.956 28.22 110.876 28.532 110.828 28.788C110.78 29.044 110.756 29.252 110.756 29.412C110.756 29.86 110.9 30.172 111.188 30.348C111.476 30.508 111.956 30.588 112.628 30.588V31.5H106.796V30.588C107.164 30.54 107.476 30.476 107.732 30.396C108.004 30.316 108.236 30.204 108.428 30.06C108.636 29.916 108.812 29.732 108.956 29.508C109.116 29.268 109.268 28.98 109.412 28.644L115.652 13.02H116.684L122.132 26.556C122.5 27.452 122.82 28.172 123.092 28.716C123.364 29.244 123.628 29.644 123.884 29.916C124.14 30.188 124.412 30.364 124.7 30.444C125.004 30.524 125.364 30.564 125.78 30.564V31.5H117.956V30.564C118.804 30.564 119.388 30.484 119.708 30.324C120.028 30.164 120.188 29.9 120.188 29.532C120.188 29.372 120.18 29.228 120.164 29.1C120.148 28.956 120.116 28.804 120.068 28.644C120.036 28.484 119.98 28.308 119.9 28.116C119.836 27.908 119.748 27.668 119.636 27.396L118.652 24.804ZM112.724 23.604H118.196L115.532 16.524L112.724 23.604ZM138.391 31.5V30.588C138.999 30.572 139.487 30.532 139.855 30.468C140.239 30.388 140.535 30.252 140.743 30.06C140.951 29.852 141.087 29.58 141.151 29.244C141.231 28.892 141.271 28.428 141.271 27.852V16.668C141.271 16.108 141.239 15.66 141.175 15.324C141.127 14.972 141.015 14.7 140.839 14.508C140.679 14.3 140.439 14.164 140.119 14.1C139.799 14.02 139.383 13.964 138.871 13.932V13.02H147.295C148.735 13.02 150.063 13.26 151.279 13.74C152.511 14.22 153.567 14.884 154.447 15.732C155.343 16.58 156.039 17.588 156.535 18.756C157.031 19.924 157.279 21.196 157.279 22.572C157.279 23.884 157.047 25.092 156.583 26.196C156.119 27.284 155.463 28.22 154.615 29.004C153.783 29.788 152.783 30.404 151.615 30.852C150.447 31.284 149.167 31.5 147.775 31.5H138.391ZM144.199 14.196C143.927 14.196 143.791 14.332 143.791 14.604V27.588C143.791 29.412 144.983 30.324 147.367 30.324C149.559 30.324 151.239 29.676 152.407 28.38C153.575 27.068 154.159 25.148 154.159 22.62C154.159 21.292 153.999 20.108 153.679 19.068C153.359 18.028 152.895 17.148 152.287 16.428C151.695 15.708 150.975 15.156 150.127 14.772C149.279 14.388 148.319 14.196 147.247 14.196H144.199Z" fill="#5A341D"/>
</svg>
